<?xml version="1.0" encoding="utf-8"?>
<!-- Generator: Adobe Illustrator 24.1.1, SVG Export Plug-In . SVG Version: 6.00 Build 0)  -->
<svg version="1.1" id="Livello_1" xmlns="http://www.w3.org/2000/svg" xmlns:xlink="http://www.w3.org/1999/xlink" x="0px" y="0px"
	 viewBox="0 0 200 200" style="enable-background:new 0 0 200 200;" xml:space="preserve">
<style type="text/css">
	.st0{fill:#1E1E1E;}
	.st1{enable-background:new    ;}
	.st2{fill:#556600;}
</style>
<rect class="st0" width="200" height="200"/>
<g class="st1">
	<path class="st2" d="M11.2,188.1c-4.6-4.6-4.7-11.8,0.2-16.7c4.7-4.7,11.3-4.7,15.2-0.8c3.6,3.6,3.1,7.6,1.1,9.6
		c-1.6,1.6-3.2,1.8-4.6,1.2c0.3,1.8,0,3.2-1.1,4.4c-2,2-5,1.9-7.4-0.5c-2.7-2.7-3.2-6.9-0.9-9.2c1.1-1.1,2.7-1.3,3.9-1l-1-1.5l4.1-3
		l3.8,5.5c0.3,0.4,0.5,0.7,1,1.1c0.6,0.6,1.4,0.7,2.1,0c1.1-1.1,0.8-3.4-1.7-5.9c-3.5-3.5-9.3-3.5-13.7,0.8
		c-4.5,4.5-4.3,10.9-0.1,15.2c4.2,4.2,10.5,4.4,15.1-0.1c1.9-1.9,2.8-3.6,3.3-5.9l1,0.2c-0.6,2.3-1.6,4.4-3.6,6.4
		C22.9,192.9,15.8,192.7,11.2,188.1z M20.5,180.2c0-0.6-0.3-1.2-0.8-1.8c-0.7-0.7-1.6-0.7-2.1-0.1c-0.4,0.4-0.5,0.8-0.5,1.3
		c0,0.6,0.3,1.2,0.8,1.8c0.7,0.7,1.6,0.7,2.1,0.1C20.3,181.1,20.5,180.6,20.5,180.2z"/>
	<path class="st2" d="M28,167.7l-1.2,1.2l-3.3-3.3l1.2-1.2c-1.1-1.1-1.7-2.3-1.7-3.5c0-1.4,0.6-2.6,2-4c1.3-1.3,2.1-1.9,2.9-2.3
		l2.7,2.7c-0.5,0.3-1,0.7-1.5,1.2c-0.7,0.7-0.7,1.3-0.2,1.8l0.1,0.1l2.4-2.4l3.2,3.2l-2.3,2.3l7,7l-4.3,4.3L28,167.7z"/>
	<path class="st2" d="M36.6,162.9L36.6,162.9c-2.9-2.9-3-7.8,0.4-11.2s8.2-3.3,11.1-0.4l0,0c2.9,2.9,3,7.8-0.4,11.2
		C44.3,165.9,39.5,165.8,36.6,162.9z M44,155.5L44,155.5c-1.1-1.1-2.6-1.1-3.6-0.2c-1,1-0.8,2.5,0.1,3.4l0,0c1,1,2.6,1.1,3.5,0.1
		C45.1,157.9,45,156.4,44,155.5z"/>
	<path class="st2" d="M43.9,145.2l4.3-4.3l1.4,1.4c-0.2-1.5,0-3.4,1.5-4.8c2.2-2.2,4.9-2.1,7.3,0.2l6.8,6.8l-4.3,4.3l-5.4-5.4
		c-0.9-0.9-1.9-0.9-2.6-0.2c-0.6,0.6-0.7,1.7,0.2,2.6l5.4,5.4l-4.3,4.3L43.9,145.2z"/>
	<path class="st2" d="M63.3,141.1l-0.1-8.4l-4,4l-3.3-3.3l9.9-9.9l2.7,2.7l0.1,8.4l4.2-4.2l3.3,3.3l-10.1,10L63.3,141.1z"/>
	<path class="st2" d="M63.2,119l4.3-4.3l4.8,4.8c-0.2-1.5,0.1-3.3,1.5-4.8c2.2-2.2,4.9-2.1,7.3,0.2l6.8,6.8l-4.3,4.3l-5.4-5.4
		c-0.9-0.9-1.9-0.9-2.6-0.2c-0.6,0.6-0.7,1.7,0.2,2.6l5.4,5.4l-4.3,4.3L63.2,119z"/>
	<path class="st2" d="M83.6,115.9L83.6,115.9c-2.9-2.9-3-7.8,0.4-11.2c3.4-3.4,8.2-3.3,11.1-0.4l0,0c2.9,2.9,3,7.8-0.4,11.2
		C91.4,118.8,86.5,118.8,83.6,115.9z M91.1,108.4L91.1,108.4c-1.1-1.1-2.6-1.1-3.6-0.2c-1,1-0.8,2.5,0.1,3.4l0,0
		c1,1,2.6,1.1,3.5,0.1C92.2,110.9,92.1,109.4,91.1,108.4z"/>
	<path class="st2" d="M97.7,105l-6.8-6.8l4.3-4.3l5.4,5.4c0.9,0.9,1.9,0.9,2.6,0.2s0.7-1.7-0.2-2.6l-5.4-5.4l4.3-4.3l10.3,10.3
		l-4.3,4.3l-1.4-1.4c0.2,1.5-0.1,3.3-1.5,4.8C102.8,107.4,100,107.3,97.7,105z"/>
	<path class="st2" d="M111.4,95.8l-1-3.9c2-0.5,3.8-1.5,4.9-2.7c0.4-0.4,0.5-0.7,0.3-1l0,0c-0.2-0.2-0.5-0.2-1.8,0.6
		c-3.2,2-5.5,2.9-7.7,0.7l0,0c-2.3-2.3-1.7-5.3,1-8c1.7-1.7,3.8-2.9,5.8-3.4l1.2,3.9c-1.7,0.5-3.4,1.4-4.2,2.3
		c-0.4,0.4-0.5,0.7-0.3,0.9l0,0c0.2,0.2,0.6,0.1,1.9-0.7c3.2-2,5.5-2.8,7.6-0.7l0,0c2.2,2.2,1.9,5.2-0.9,8
		C116.2,94,113.8,95.3,111.4,95.8z"/>
	<path class="st2" d="M117.8,81.7L117.8,81.7c-3.1-3.1-3.2-7.6-0.2-10.7c3.6-3.6,7.9-2.8,11,0.3c0.2,0.2,0.5,0.5,0.7,0.7l-6.6,6.6
		c1.2,0.6,2.4,0.4,3.3-0.6c0.8-0.8,1.1-1.8,1-3.1l4.1-0.5c0.3,2.3-0.2,4.7-2.4,6.9C125.4,84.7,121,84.9,117.8,81.7z M123.6,74
		c-1.1-0.9-2.2-0.9-3-0.1c-0.7,0.7-0.6,1.8,0.2,2.9L123.6,74z"/>
	<path class="st2" d="M128.3,67.4l-1.2,1.2l-3.3-3.3l1.2-1.2c-1.1-1.1-1.7-2.3-1.7-3.5c0-1.4,0.6-2.6,2-4c1.3-1.3,2.1-1.9,2.9-2.3
		l2.7,2.7c-0.5,0.3-1,0.7-1.5,1.2c-0.7,0.7-0.7,1.3-0.2,1.8l0.1,0.1l2.4-2.4l3.2,3.2l-2.3,2.3l7,7l-4.3,4.3L128.3,67.4z"/>
	<path class="st2" d="M136.9,62.6L136.9,62.6c-2.9-2.9-3-7.8,0.4-11.2s8.2-3.3,11.1-0.4l0,0c2.9,2.9,3,7.8-0.4,11.2
		S139.8,65.5,136.9,62.6z M144.3,55.2L144.3,55.2c-1.1-1.1-2.6-1.1-3.6-0.2c-1,1-0.8,2.5,0.1,3.4l0,0c1,1,2.6,1.1,3.5,0.1
		C145.4,57.6,145.3,56.1,144.3,55.2z"/>
	<path class="st2" d="M144.2,44.9l4.3-4.3l1.4,1.4c-0.2-1.5,0-3.4,1.5-4.8c2.2-2.2,4.9-2.1,7.3,0.2l6.8,6.8l-4.3,4.3l-5.4-5.4
		c-0.9-0.9-1.9-0.9-2.6-0.2c-0.6,0.6-0.7,1.7,0.2,2.6l5.4,5.4l-4.3,4.3L144.2,44.9z"/>
	<path class="st2" d="M163.6,40.7l-0.1-8.4l-4,4l-3.3-3.3l9.9-9.9l2.7,2.7l0.1,8.4L173,30l3.3,3.3l-10.1,10.1L163.6,40.7z"/>
	<path class="st2" d="M163.5,18.8l4.4-4.4l2.7,2.7l-4.4,4.4L163.5,18.8z M167,22.2l4.3-4.3l10.3,10.3l-4.3,4.3L167,22.2z"/>
	<path class="st2" d="M177.5,22.1L177.5,22.1c-3.1-3.1-3.2-7.6-0.2-10.7c3.6-3.6,7.9-2.8,11,0.3c0.2,0.2,0.5,0.5,0.7,0.7l-6.6,6.6
		c1.2,0.6,2.4,0.4,3.3-0.6c0.8-0.8,1.1-1.8,1-3.1l4.1-0.5c0.3,2.3-0.2,4.7-2.4,6.9C185,25.1,180.6,25.3,177.5,22.1z M183.2,14.4
		c-1.1-0.9-2.2-0.9-3-0.1c-0.7,0.7-0.6,1.8,0.2,2.9L183.2,14.4z"/>
</g>
</svg>
