<?xml version="1.0" encoding="utf-8"?>
<!-- Generator: Adobe Illustrator 24.1.1, SVG Export Plug-In . SVG Version: 6.00 Build 0)  -->
<svg version="1.0" id="Livello_1" xmlns="http://www.w3.org/2000/svg" xmlns:xlink="http://www.w3.org/1999/xlink" x="0px" y="0px"
	 viewBox="0 0 80.19 43.89" style="enable-background:new 0 0 80.19 43.89;" xml:space="preserve">
<style type="text/css">
	.st0{fill:#FFFFFF;}
</style>
<path class="st0" d="M4.66,10.41c5.2,4.6,11.2,3.1,17,2.6c4.3-0.4,8.7-1.6,13-1.1c9.9,1.1,18.6-3,27.4-6.2
	c3.4-1.2,13.2-3.8,13.5-4.6c0.3-0.6,1.1-0.9,1.8-1.1c0.2-0.1,0.9,0.7,0.9,1.2c0.7,5,1.3,10,1.9,15c0.2,1.6-0.4,2.2-1.9,2.5
	c-7.3,1.4-14.6,2.8-21.9,4.3c-3.8,0.8-7.5,1.7-11.3,2.8c-4.4,1.3-6.4,5-8.5,8.6c-0.79,1.35-1.56,2.54-3.1,4.1
	c-1.95,1.97-3.98,3.14-5.41,3.83c-0.12,0.14-1.7,1.89-3.63,1.49c-0.49-0.1-0.9-0.32-1.21-0.56c-0.29-0.14-0.64-0.37-0.74-0.74
	c-0.11-0.4,0.12-0.72,0.28-1.21c0.13-0.42,0.22-1.03,0.04-1.87c-1,0.08-1.73,0.34-2.22,0.56c-1.18,0.53-1.87,1.29-2.88,1.31
	c-0.14,0-0.98,0-0.98,0l-1.43-1.31c-0.06-0.39-0.11-0.79-0.15-1.21c-0.04-0.44-0.08-0.86-0.1-1.27c-0.25,0.21-0.98,0.76-2.04,0.8
	c-0.83,0.03-1.45-0.26-1.68-0.37c-0.52-0.25-0.89-0.53-1.02-0.74c-0.37-0.59-0.74-1.18-1.12-1.77c0.35-0.51,0.91-1.34,0.91-1.34
	c-0.39-0.02-0.96-0.07-1.65-0.15c-1.44-0.17-2.63-0.4-2.94-0.47c-2.34-0.56-4.33-4.08-4.88-5.12c-1.02-1.64-0.55-3.34,0.28-3.72
	c0.65-0.31,1.73,0.11,2.51,1.02c0.08,0.29,0.98,3.48,3.56,4.2c2.94,0.82,5.51-2.27,6.42-3.37c0.79-0.95,2.09-2.52,1.7-4.1
	c-0.3-1.2-2.1-2.2-3.5-2.9c-3.1-1.4-6.4-2.4-7.5-6.1c-0.3-0.8-0.2-1.8-0.3-2.6C4.06,10.68,4.36,10.54,4.66,10.41z"/>
</svg>
