<?xml version="1.0" encoding="utf-8"?>
<!-- Generator: Adobe Illustrator 24.1.1, SVG Export Plug-In . SVG Version: 6.00 Build 0)  -->
<svg version="1.0" id="Livello_1" xmlns="http://www.w3.org/2000/svg" xmlns:xlink="http://www.w3.org/1999/xlink" x="0px" y="0px"
	 viewBox="0 0 116.39 86.49" style="enable-background:new 0 0 116.39 86.49;" xml:space="preserve">
<style type="text/css">
	.st0{fill:#FFFFFF;}
</style>
<path class="st0" d="M114.9,81.36c2.44-6.5,2.23-15.64-3.29-21.52c-0.77,0.13-1.53,0.15-2.21,0.02c-2.2-0.4-4.4-1.4-6.4-2.5
	c-13.5-7.4-27.1-14.7-40.4-22.4c-5.2-3-10.1-6.5-14.5-10.4c-7.13-6.32-10.9-9.26-13.4-13.8C32.06,5.97,30.31-0.12,27.63,0
	c-1.2,0.05-2.03,1.32-4.26,1.38c-1.3,0.04-2.35-0.35-2.98-0.64c-1.22,2.32-1.03,3.45-0.64,4.04c0.92,1.4,3.28,0.39,4.68,2.02
	c1.09,1.27,0.9,3.31,0.43,4.57c-0.6,1.6-1.83,2.41-2.16,2.61c-1.17,0.74-2.33,0.82-2.79,0.86c-6.4,0.52-11.53,2.81-12.6,0.99
	c-0.63-1.07,0.86-2.34,0.21-3.09c-0.94-1.08-5.28,0.28-6.92,3.19c-0.19,0.34-0.94,1.68-0.43,2.45c0.41,0.61,3.72,2.39,2.98,2.98
	c-0.64,0.5-0.98,1.04-1.25,1.47c-0.53,0.85-0.98,1.58-0.98,2.57c0,1.63,1.23,2.72,1.48,2.93c0.99,0.84,2.09,0.97,2.5,1
	c-0.06,0.13-0.83,1.7,0.06,3.3c0.91,1.63,2.71,1.79,2.84,1.8c0.51,0.88,1.08,1.4,1.52,1.71c2.91,2.1,6.47-0.05,15.21-0.96
	c3.12-0.32,4.45-0.23,5.43-0.11c3.39,0.44,5.83,1.73,7.14,2.45c7.73,4.26,15.44,10.41,15.7,10.6c4.6,3.3,8.9,7.1,13.5,10.6
	c4.7,3.6,9.6,7,14.3,10.7c5.9,4.6,11.4,9.7,17.5,14c4.07,2.99,8.63,3.77,13.27,2.34C112.94,84.75,114.17,83.33,114.9,81.36z"/>
</svg>
