<?xml version="1.0" encoding="utf-8"?>
<!-- Generator: Adobe Illustrator 24.1.1, SVG Export Plug-In . SVG Version: 6.00 Build 0)  -->
<svg version="1.1" id="Livello_1" xmlns="http://www.w3.org/2000/svg" xmlns:xlink="http://www.w3.org/1999/xlink" x="0px" y="0px"
	 viewBox="0 0 418.7 445.9" style="enable-background:new 0 0 418.7 445.9;" xml:space="preserve">
<style type="text/css">
	.st0{fill:#FFFFFF;}
</style>
<g>
	<path class="st0" d="M222.3,275.9c0,0-31,170-38,170s-1-9-1-9s28-162,32-164S222.3,275.9,222.3,275.9z"/>
	<path class="st0" d="M150.3,255.9c0,0,76-3,102,12s-4,25-9,21s-46-17-59-16S150.3,263.9,150.3,255.9z"/>
	<path class="st0" d="M165.4,150.9c-0.9-6.3-3.8-10.5-6.5-14.7c-3.7-5.7-7.5-11.3-11.2-16.9c-0.7-1.1-1.1-2.5-1.7-4
		c11.7-2.6,18.6-11.7,25.8-20.4c5.8-6.9,11.8-13.3,20.9-15.8c8.8-2.4,16.9-1.3,25.3,2.6c8.8,4.1,15,10.1,18.3,18.9
		c2.2,5.8,3.1,11.9,4.7,17.9c4.5,17.3,5.3,34.9,4.5,52.6c-0.4,9.4,0.4,18.6,3.6,27.5c0.7,1.8,1.4,3.6,2.4,5.3
		c4.2,7.2,5.7,15.4,8.1,23.2c1,3.4,2,6.8,3,10.3c-7.4,1.1-14.6,2.7-21.8,2.9c-6.3,0.2-12.7-0.7-18.9-2.1c-7.9-1.8-15.6-3.7-23.8-3.6
		c-4.7,0-9.4,0.1-14.1,0.3c-2.1,0.1-4.3,0.8-7.3,1.5c2.4-4.8,4.2-8.9,6.4-12.7c2.4-4.4,3.4-9.2,3.9-14.1c0.5-5.6,1.1-11.1,1.4-16.7
		c0.1-1-0.8-2.1-1-3.2c-1-5.9-2.3-11.7-2.9-17.6c-0.5-5.2-0.5-10.4-0.5-15.7c0-6.2,0.2-12.4,0.3-18.6c0-2.3,0.9-3.9,3-4.9
		c2-0.9,4.1-1.8,6.1-2.7c8.3-3.7,13.1-10.4,15.8-18.8c0.2-0.6,0.4-1.4,0.2-2c-0.2-0.8-0.8-1.5-1.2-2.3c-0.5,0.7-1.2,1.3-1.4,2.1
		c-2.6,8.2-6.5,15.3-15.2,18.4c-5.2,1.9-9.2,5.3-12.7,9.5C175,141.8,170.3,146,165.4,150.9z"/>
	<path class="st0" d="M157.4,138.8c-3.9-6-7.8-11.9-11.8-17.8c-0.3-0.5-1.9-0.7-2.6-0.4c-3.8,1.8-7.5,4-11.3,5.8c-0.9,0.5-2,0.8-3,1
		c5.5,5.9,5.7,15,3.3,21.5c-0.7,2-2,3.4-3.5,4.4c0.9-0.3,1.9-0.7,2.8-1.1c5.6-2.8,11.2-5.7,17-8.1c3.1-1.4,6.6-1.9,10.2-2.9
		C158,140.2,157.8,139.4,157.4,138.8z"/>
	<path class="st0" d="M220.1,66.7c-2.1-3.5-2.4-4.4-6,0.9c-0.9-1.1-1.9-2.2-2.7-3.3c-1.6-2.2-3.2-4.4-4.7-6.7
		c-1.2-1.8-0.4-2.9,1.3-3.9c4.3-2.5,5.7-9.7,2.9-13.1c-2-2.5-4.6-2-7.2-1.7c-1.5,0.2-2.8,1-4.7,1.7c-0.2-3.1-0.4-5.9-0.6-8.7
		c0-0.6,0-1.8-0.2-1.9c-3.9-1.1-3.3-5.6-6-7.8c-0.7,0.3-1.4,0.6-2.3,0.9c-1-1.4-1.7-3.4-3.1-4.1c-1.2-0.5-3.1,0.5-5.3,1
		c-4.4-2.4-2.3-7.2-2.9-11.3c0.3,0.2,0.6,0.3,0.9,0.5c0.9-0.7,2.4-1.3,2.6-2.2c0.6-3.2,3.1-4.6,5.6-7c-0.1,1-0.2,1.4-0.2,1.7
		c-0.1,1-0.3,1.9-0.4,2.9c1.1-0.3,2.1-0.4,3.2-0.8c3.5-1.3,7-2.6,10.4-4c0,0.5,0,0.9,0.1,1.4c1.4,0.4,2.9,0.8,4.3,1.2
		c2.8,0.8,5.7,1.6,9.1,2.6c-2.1,2.3-1,3.1,0.6,4.1c4,2.6,7.9,5.5,11.8,8.3c-0.3,0.1-0.6,0.3-0.9,0.5c0.5,1.7,0.9,3.4,1.6,4.9
		c1,2.1,2.6,3.9,3.6,6c1.1,2.4,2.6,4.5,1.5,7.8c-0.8,2.7,0.3,5.9,0.4,8.9c0.1,2.3,0.3,4.8-0.4,6.9c-0.6,1.8-2,3.8-3.6,4.9
		C225.4,59.8,221.5,61.7,220.1,66.7z"/>
	<path class="st0" d="M185.4,22.2c2.6,0.8,1.5,6.2,6.2,3.7c0.6,1.5,1.1,2.9,1.6,4.4c0.2,0.5,0.1,1.4,0.5,1.6c4.2,3,1.8,7.4,2.4,11.2
		c0.1,0.4-0.1,0.8,0,1.2c0.3,0.7,0.6,1.6,1.1,1.8c0.4,0.2,1.3-0.4,1.8-0.9c2.1-2.1,4.4-3.7,7.6-3.6c2.5,0.1,3.4,1.4,3.2,3.8
		c-0.3,2.8-1.3,5.1-3.8,6.5c-2.3,1.3-3.1,3.4-2.3,5.7c1.1,3,1.7,6.2,4.9,8.1c1.7,1,2.6,3.3,3.8,5c0.5,0.8,1,1.6,1.7,2.8
		c0.9-1,1.6-1.7,2.5-2.8c0.1,2.5,0.3,4.8,0.4,7.5c-5.1-2.7-10.1-4.1-15.5-3.3c-5.1,0.7-10.1,1.8-15.4,2.8c-0.6-2.3-1.8-5.2-5.1-5.6
		c-2.7-0.3-5.6-0.1-8.4,0.4c-3.3,0.6-5.2-0.5-5.6-3.9c-0.3-2.5-0.5-5-1.2-7.4c-0.5-1.8,0.6-2.1,1.7-2.7c1.8-1,3.7-2.1,5.3-3.3
		c0.7-0.5,0.8-1.7,1.3-2.8c-1.6-0.2-2.7-0.2-3.6-0.6c-3.9-1.6-3.7-1.7-3.1-6.1c0.2-1.5-0.6-3.3-1.4-4.8c-1.8-3.8-1.8-4.5,2-6
		s5.5-4.7,7-8.1c0.9-2,1.7-4.1,2.6-6.2C180.2,21.2,181.8,27.8,185.4,22.2z"/>
</g>
</svg>
