<?xml version="1.0" encoding="utf-8"?>
<!-- Generator: Adobe Illustrator 24.1.1, SVG Export Plug-In . SVG Version: 6.00 Build 0)  -->
<svg version="1.1" id="Livello_1" xmlns="http://www.w3.org/2000/svg" xmlns:xlink="http://www.w3.org/1999/xlink" x="0px" y="0px"
	 viewBox="0 0 157.9 157.7" style="enable-background:new 0 0 157.9 157.7;" xml:space="preserve">
<style type="text/css">
	.st0{fill:#FFFFFF;}
</style>
<g>
	<path class="st0" d="M157.9,72.5c0,3.7,0,7.4,0,11c-0.1,0.3-0.1,0.6-0.1,0.8c-0.5,6.4-1.8,12.7-3.8,18.9
		c-4.9,15-13.8,27.1-25.9,36.9c-9.7,7.8-20.4,13.3-32.9,15.3c-4.9,0.8-9.8,1.8-14.8,2.3c-3.1,0-6.2,0-9.4,0
		c-1.6-0.3-3.2-0.5-4.7-0.8c-7.5-1.5-14.5-4.4-21.3-7.8c-9.1-4.6-17.4-10.2-24.4-17.6C10.6,120.7,4.1,108.1,1.3,93.6
		C0.6,90.3,0.3,86.9,0,83.5c0-2.9,0-5.8,0-8.6c0.1-0.3,0.1-0.6,0.2-0.9c0.3-4.9,1-9.7,2.2-14.4c6-22.9,18.7-40.6,40.5-51
		c8.5-4.1,17.5-6.8,26.9-7.9c2.2-0.2,4.4-0.4,6.6-0.6c2.2,0,4.3,0,6.5,0c0.3,0.1,0.7,0.1,1.1,0.1c2.9,0,5.7,0.4,8.6,0.8
		c16,2.4,29.9,9.1,41.6,20.5c11.5,11.2,19.1,24.6,22.4,40.4C157.1,65.3,157.5,68.9,157.9,72.5z M138.7,82.1
		c0.2-5.1-0.4-10.4-1.3-15.7c-1.4-7.3-4.5-13.8-8-20.2c-2.1-3.8-4.7-7.3-8-10.3c-7.4-6.9-15.6-12.6-24.9-16.5
		c-1.1-0.5-2.2-1-3.3-1.4c-7.5-2.7-15.2-2.4-22.8-0.5C58.6,20.3,48.3,26,39.4,34c-16.5,14.8-22.8,33.2-19,54.9
		c3,17,12,30.3,26.6,39.5c14.3,9,29.7,11.8,46.2,7.8c11.5-2.8,21.4-8.5,30.4-15.9c6.5-5.4,10.9-12.3,13.2-20.4
		C138.5,94.1,138.8,88.3,138.7,82.1z"/>
</g>
<path class="st0" d="M84.5,78c0.1,2.9-2.5,5.6-5.5,5.7c-2.5,0.1-5.6-2.6-5.7-5.1c-0.1-3.2,2.5-6.2,5.5-6.3
	C81.8,72.2,84.4,74.9,84.5,78z"/>
<path class="st0" d="M78.9,64c-7.7,0-14,6.3-14,14s6.3,14,14,14s14-6.3,14-14S86.6,64,78.9,64z M79.1,86c-3.6,0.1-7.8-3.7-7.9-7.2
	c-0.2-4.5,3.5-8.7,7.6-8.8c4.1-0.1,7.8,3.7,7.9,8C86.8,82.1,83.2,85.8,79.1,86z"/>
<path class="st0" d="M78.9,61.8c0.7-14.7,1.3-29.3,2-44h3.6l-3.6,44C80.2,61.8,79.6,61.8,78.9,61.8z"/>
<path class="st0" d="M82.5,63c3.2-14.3,6.4-28.7,9.6-43l3.5,0.6L84.5,63.4C83.9,63.3,83.2,63.2,82.5,63z"/>
<path class="st0" d="M87,64.7c8.6-10.8,17.1-21.5,25.7-32.3l2.7,2.1L88.5,65.9C88,65.5,87.5,65.1,87,64.7z"/>
<path class="st0" d="M89,67.7c10.2-9,20.5-18.1,30.7-27.1l2.3,2.5l-31.7,26C89.9,68.7,89.5,68.2,89,67.7z"/>
<path class="st0" d="M93.8,73.2c12.7-5.2,25.4-10.4,38.1-15.6l1.3,3.3L94.5,75C94.2,74.4,94,73.8,93.8,73.2z"/>
<path class="st0" d="M94.1,77c13.3-2.7,26.7-5.5,40-8.2l0.8,3.5l-40.4,6.7C94.4,78.3,94.2,77.6,94.1,77z"/>
<path class="st0" d="M94.5,81.7c14.1,4,28.3,8,42.4,11.9l-0.9,3.6L94,83.7C94.2,83.1,94.3,82.4,94.5,81.7z"/>
<path class="st0" d="M92.4,85.1c13.2,6.4,26.3,12.9,39.4,19.3l-1.5,3.4L91.6,87C91.8,86.4,92.1,85.8,92.4,85.1z"/>
<path class="st0" d="M88.4,89.4c10.7,10,21.5,20,32.2,30l-2.3,2.7L87.2,90.9C87.6,90.4,88,89.9,88.4,89.4z"/>
<path class="st0" d="M85.2,91.4c8.8,11.7,17.7,23.4,26.6,35.1l-2.8,2.3L83.6,92.7C84.2,92.3,84.7,91.9,85.2,91.4z"/>
<path class="st0" d="M80.8,93.8c1.5,14.3,3,28.6,4.4,42.9l-3.3,0.4l-3-43.1C79.5,93.9,80.2,93.8,80.8,93.8z"/>
<path class="st0" d="M77.2,93.1c-0.9,14.3-1.8,28.5-2.8,42.8l-3.4-0.2L75.3,93C75.9,93,76.6,93,77.2,93.1z"/>
<path class="st0" d="M70.9,91.7c-8.6,10.8-17.1,21.5-25.7,32.3l-2.7-2.1l26.8-31.4C69.9,90.9,70.4,91.3,70.9,91.7z"/>
<path class="st0" d="M68.9,88.6c-10.2,9-20.5,18.1-30.7,27.1l-2.3-2.5l31.7-26C68,87.7,68.5,88.2,68.9,88.6z"/>
<path class="st0" d="M64.2,83.2c-12.7,5.2-25.4,10.4-38.1,15.6l-1.3-3.3l38.7-14.1C63.7,82,63.9,82.6,64.2,83.2z"/>
<path class="st0" d="M63.8,79.4c-13.3,2.7-26.7,5.5-40,8.2L23,84.1l40.4-6.7C63.5,78.1,63.7,78.7,63.8,79.4z"/>
<path class="st0" d="M63.5,74.7c-13.5-4-27.1-8-40.7-11.9l0.9-3.6L64,72.6C63.9,73.3,63.7,74,63.5,74.7z"/>
<path class="st0" d="M65.5,71.2c-12.6-6.4-25.2-12.9-37.8-19.3l1.5-3.4l37.2,20.8C66.1,70,65.8,70.6,65.5,71.2z"/>
<path class="st0" d="M69.5,65.8C60.6,54.9,51.7,44,42.9,33l2.6-2.2L71,64.5C70.5,65,70,65.4,69.5,65.8z"/>
<path class="st0" d="M72.9,64.4c-6.8-12.3-13.6-24.5-20.4-36.8l3-1.8l19.1,37.5C74.1,63.7,73.5,64,72.9,64.4z"/>
</svg>
